<mxfile host="app.diagrams.net" modified="2022-03-19T05:29:56.996Z" agent="5.0 (Windows NT 10.0; Win64; x64) AppleWebKit/537.36 (KHTML, like Gecko) Chrome/99.0.4844.51 Safari/537.36" etag="OIHaIdiOG4X7po0pXWpA" version="17.1.3" type="github">
  <diagram id="wYpinKa52u-30t0-_Edu" name="第 1 页">
    <mxGraphModel dx="4543" dy="1066" grid="1" gridSize="10" guides="1" tooltips="1" connect="1" arrows="1" fold="1" page="1" pageScale="1" pageWidth="827" pageHeight="1169" math="0" shadow="0">
      <root>
        <mxCell id="0" />
        <mxCell id="1" parent="0" />
        <mxCell id="dGPY8gv9Xlfl3uozYMeL-1" value="&lt;h1&gt;停车场自动缴费操作流程&lt;/h1&gt;&lt;p&gt;Lorem ipsum dolor sit amet, consectetur adipisicing elit, sed do eiusmod tempor incididunt ut labore et dolore magna aliqua.&lt;/p&gt;" style="text;html=1;strokeColor=none;fillColor=none;spacing=5;spacingTop=-20;whiteSpace=wrap;overflow=hidden;rounded=0;" vertex="1" parent="1">
          <mxGeometry x="60" y="40" width="370" height="100" as="geometry" />
        </mxCell>
        <mxCell id="dGPY8gv9Xlfl3uozYMeL-37" value="" style="edgeStyle=orthogonalEdgeStyle;rounded=0;orthogonalLoop=1;jettySize=auto;html=1;" edge="1" parent="1" source="dGPY8gv9Xlfl3uozYMeL-29" target="dGPY8gv9Xlfl3uozYMeL-30">
          <mxGeometry relative="1" as="geometry" />
        </mxCell>
        <mxCell id="dGPY8gv9Xlfl3uozYMeL-29" value="" style="rounded=0;whiteSpace=wrap;html=1;flipV=0;align=center;flipH=1;" vertex="1" parent="1">
          <mxGeometry x="368" y="320" width="120" height="60" as="geometry" />
        </mxCell>
        <mxCell id="dGPY8gv9Xlfl3uozYMeL-38" value="" style="edgeStyle=orthogonalEdgeStyle;rounded=0;orthogonalLoop=1;jettySize=auto;html=1;" edge="1" parent="1" source="dGPY8gv9Xlfl3uozYMeL-30" target="dGPY8gv9Xlfl3uozYMeL-32">
          <mxGeometry relative="1" as="geometry" />
        </mxCell>
        <mxCell id="dGPY8gv9Xlfl3uozYMeL-30" value="" style="rounded=0;whiteSpace=wrap;html=1;flipV=0;align=center;flipH=1;" vertex="1" parent="1">
          <mxGeometry x="368" y="440" width="120" height="60" as="geometry" />
        </mxCell>
        <mxCell id="dGPY8gv9Xlfl3uozYMeL-36" style="edgeStyle=orthogonalEdgeStyle;rounded=0;orthogonalLoop=1;jettySize=auto;html=1;exitX=0.5;exitY=1;exitDx=0;exitDy=0;entryX=0.5;entryY=0;entryDx=0;entryDy=0;" edge="1" parent="1" source="dGPY8gv9Xlfl3uozYMeL-31" target="dGPY8gv9Xlfl3uozYMeL-29">
          <mxGeometry relative="1" as="geometry" />
        </mxCell>
        <mxCell id="dGPY8gv9Xlfl3uozYMeL-31" value="" style="rounded=0;whiteSpace=wrap;html=1;flipV=0;align=center;flipH=1;" vertex="1" parent="1">
          <mxGeometry x="368" y="200" width="120" height="60" as="geometry" />
        </mxCell>
        <mxCell id="dGPY8gv9Xlfl3uozYMeL-39" value="" style="edgeStyle=orthogonalEdgeStyle;rounded=0;orthogonalLoop=1;jettySize=auto;html=1;" edge="1" parent="1" source="dGPY8gv9Xlfl3uozYMeL-32" target="dGPY8gv9Xlfl3uozYMeL-35">
          <mxGeometry relative="1" as="geometry" />
        </mxCell>
        <mxCell id="dGPY8gv9Xlfl3uozYMeL-32" value="" style="rounded=0;whiteSpace=wrap;html=1;flipV=0;align=center;flipH=1;" vertex="1" parent="1">
          <mxGeometry x="368" y="570" width="120" height="60" as="geometry" />
        </mxCell>
        <mxCell id="dGPY8gv9Xlfl3uozYMeL-41" value="" style="edgeStyle=orthogonalEdgeStyle;rounded=0;orthogonalLoop=1;jettySize=auto;html=1;" edge="1" parent="1" source="dGPY8gv9Xlfl3uozYMeL-33" target="dGPY8gv9Xlfl3uozYMeL-34">
          <mxGeometry relative="1" as="geometry" />
        </mxCell>
        <mxCell id="dGPY8gv9Xlfl3uozYMeL-33" value="" style="rounded=0;whiteSpace=wrap;html=1;flipV=0;align=center;flipH=1;" vertex="1" parent="1">
          <mxGeometry x="368" y="810" width="120" height="60" as="geometry" />
        </mxCell>
        <mxCell id="dGPY8gv9Xlfl3uozYMeL-34" value="" style="rounded=0;whiteSpace=wrap;html=1;flipV=0;align=center;flipH=1;" vertex="1" parent="1">
          <mxGeometry x="368" y="930" width="120" height="60" as="geometry" />
        </mxCell>
        <mxCell id="dGPY8gv9Xlfl3uozYMeL-40" value="" style="edgeStyle=orthogonalEdgeStyle;rounded=0;orthogonalLoop=1;jettySize=auto;html=1;" edge="1" parent="1" source="dGPY8gv9Xlfl3uozYMeL-35" target="dGPY8gv9Xlfl3uozYMeL-33">
          <mxGeometry relative="1" as="geometry" />
        </mxCell>
        <mxCell id="dGPY8gv9Xlfl3uozYMeL-35" value="" style="rounded=0;whiteSpace=wrap;html=1;flipV=0;align=center;flipH=1;" vertex="1" parent="1">
          <mxGeometry x="368" y="690" width="120" height="60" as="geometry" />
        </mxCell>
        <mxCell id="dGPY8gv9Xlfl3uozYMeL-57" value="" style="rounded=1;whiteSpace=wrap;html=1;" vertex="1" parent="1">
          <mxGeometry x="368" y="200" width="120" height="60" as="geometry" />
        </mxCell>
        <mxCell id="dGPY8gv9Xlfl3uozYMeL-58" value="发SV啊" style="rounded=0;whiteSpace=wrap;html=1;flipV=0;align=center;flipH=1;" vertex="1" parent="1">
          <mxGeometry x="-2280" y="20" width="120" height="60" as="geometry" />
        </mxCell>
      </root>
    </mxGraphModel>
  </diagram>
</mxfile>
